<svg width="699" height="145" viewBox="0 0 699 145" fill="none" xmlns="http://www.w3.org/2000/svg">
<path d="M66.9434 132.715C66.1621 134.212 66.1621 135.807 66.9434 137.5C83.8704 137.109 100.83 137.109 117.822 137.5C118.734 135.938 118.734 134.342 117.822 132.715C101.937 131.934 93.929 128.809 93.7988 123.34L92.8223 74.2188C92.4967 65.2995 91.0319 58.7891 88.4277 54.6875C85.8887 50.5208 81.3965 48.4375 74.9512 48.4375C64.1439 48.4375 51.2858 55.8919 36.377 70.8008V51.3672C35.8561 50.3255 34.7168 49.4792 32.959 48.8281C23.9095 53.0599 14.502 55.7292 4.73633 56.8359C4.3457 58.3984 4.3457 59.9284 4.73633 61.4258C12.2233 61.8164 17.7572 63.151 21.3379 65.4297C22.054 84.8958 22.054 104.199 21.3379 123.34C21.2077 128.158 15.6087 131.283 4.54102 132.715C3.75977 134.212 3.75977 135.807 4.54102 137.5C21.4681 136.849 38.4928 136.849 55.6152 137.5C56.3965 135.807 56.3965 134.212 55.6152 132.715C43.4408 131.413 37.2884 128.288 37.1582 123.34C36.6374 109.798 36.377 94.3685 36.377 77.0508C49.4629 65.5273 59.7168 59.7656 67.1387 59.7656C74.235 59.7656 77.7832 65.6576 77.7832 77.4414L77.5879 123.34C77.5879 126.53 76.6113 128.776 74.6582 130.078C72.7051 131.315 70.1335 132.194 66.9434 132.715ZM63.8184 140.918C62.1908 137.077 62.1908 133.138 63.8184 129.102C65.9017 129.102 68.0501 128.548 70.2637 127.441C72.4772 126.27 73.584 124.902 73.584 123.34L73.7793 77.4414C73.7793 70.3451 72.3796 66.0156 69.5801 64.4531C64.7624 65.625 58.2845 69.1406 50.1465 75C50.1465 92.9036 50.4069 108.952 50.9277 123.145C51.2533 126.595 53.8574 128.581 58.7402 129.102C60.3678 133.138 60.3678 137.077 58.7402 140.918C39.6647 140.267 20.4915 140.267 1.2207 140.918C-0.406901 137.077 -0.406901 133.138 1.2207 129.102C11.8327 127.669 17.2038 125.684 17.334 123.145C18.0501 104.785 18.0501 86.3281 17.334 67.7734C12.972 66.4714 7.60091 65.625 1.2207 65.2344C-0.276693 61.3281 -0.276693 57.194 1.2207 52.832C11.0514 52.3112 22.1191 49.3815 34.4238 44.043C41.4551 44.5638 46.696 46.6797 50.1465 50.3906V53.6133C59.3913 47.4935 70.0033 44.4336 81.9824 44.4336C90.7715 44.4336 97.0215 46.8424 100.732 51.6602C104.508 56.4128 106.462 63.9323 106.592 74.2188C106.852 100.065 107.178 116.439 107.568 123.34C107.699 126.009 112.288 127.93 121.338 129.102C122.835 133.398 122.705 137.337 120.947 140.918C101.872 140.527 82.8288 140.527 63.8184 140.918Z" fill="black"/>
<path d="M163.396 54.7852C170.102 54.7852 175.408 58.0078 179.314 64.4531C183.286 70.8333 185.271 80.7617 185.271 94.2383C185.271 107.715 183.286 117.643 179.314 124.023C175.408 130.404 170.102 133.594 163.396 133.594C159.686 133.594 156.3 132.812 153.24 131.25C150.245 129.688 147.674 127.279 145.525 124.023C143.442 120.768 141.814 116.699 140.643 111.816C139.471 106.868 138.885 101.009 138.885 94.2383C138.885 87.5326 139.471 81.7057 140.643 76.7578C141.814 71.7448 143.442 67.6432 145.525 64.4531C147.674 61.1979 150.245 58.7891 153.24 57.2266C156.3 55.599 159.686 54.7852 163.396 54.7852ZM163.396 140.039C169.451 140.039 174.887 138.9 179.705 136.621C184.523 134.342 188.624 131.185 192.01 127.148C195.46 123.047 198.097 118.197 199.92 112.598C201.743 106.999 202.654 100.879 202.654 94.2383C202.654 87.5977 201.743 81.4779 199.92 75.8789C198.097 70.2799 195.46 65.4622 192.01 61.4258C188.624 57.3242 184.523 54.1341 179.705 51.8555C174.887 49.5768 169.451 48.4375 163.396 48.4375C156.951 48.4375 151.124 49.5768 145.916 51.8555C140.708 54.1341 136.281 57.2917 132.635 61.3281C129.054 65.3646 126.287 70.2148 124.334 75.8789C122.381 81.4779 121.404 87.5977 121.404 94.2383C121.404 100.944 122.381 107.096 124.334 112.695C126.287 118.294 129.054 123.145 132.635 127.246C136.281 131.283 140.708 134.44 145.916 136.719C151.124 138.932 156.951 140.039 163.396 140.039ZM166.814 44.4336C174.692 44.4336 181.691 45.638 187.811 48.0469C193.995 50.4557 199.204 53.8737 203.436 58.3008C207.667 62.6628 210.89 67.9036 213.104 74.0234C215.317 80.1432 216.424 86.8815 216.424 94.2383C216.424 101.53 215.317 108.236 213.104 114.355C210.89 120.475 207.667 125.749 203.436 130.176C199.269 134.538 194.093 137.923 187.908 140.332C181.723 142.806 174.692 144.043 166.814 144.043C159.002 144.043 152.003 142.806 145.818 140.332C139.699 137.923 134.523 134.538 130.291 130.176C126.124 125.749 122.934 120.508 120.721 114.453C118.507 108.333 117.4 101.595 117.4 94.2383C117.4 86.8815 118.507 80.1432 120.721 74.0234C122.934 67.9036 126.157 62.6628 130.389 58.3008C134.62 53.8737 139.796 50.4557 145.916 48.0469C152.036 45.638 159.002 44.4336 166.814 44.4336ZM152.654 94.2383C152.654 115.267 157.374 126.921 166.814 129.199C176.45 126.921 181.268 115.267 181.268 94.2383C181.268 73.4049 176.45 61.7188 166.814 59.1797C157.374 61.7188 152.654 73.4049 152.654 94.2383Z" fill="black"/>
<path d="M318.541 75C318.541 93.8151 318.899 109.928 319.615 123.34C319.745 126.79 321.926 128.711 326.158 129.102C327.786 133.138 327.786 137.077 326.158 140.918C309.492 140.527 292.76 140.527 275.963 140.918C274.4 137.077 274.4 133.138 275.963 129.102C282.343 128.19 285.533 126.27 285.533 123.34L285.729 77.4414C285.729 70.3451 284.329 66.0156 281.529 64.4531C275.8 65.8854 270.006 69.401 264.146 75C264.146 92.9036 264.407 108.952 264.928 123.145C265.123 124.837 265.611 126.139 266.393 127.051C267.174 127.897 268.899 128.581 271.568 129.102C273.196 133.138 273.196 137.077 271.568 140.918C252.883 140.397 234.101 140.397 215.221 140.918C213.593 137.077 213.593 133.138 215.221 129.102C225.833 127.669 231.204 125.684 231.334 123.145C231.92 108.496 231.92 90.0391 231.334 67.7734C226.972 66.4714 221.601 65.625 215.221 65.2344C213.723 61.3281 213.723 57.194 215.221 52.832C225.051 52.3112 236.119 49.3815 248.424 44.043C255.455 44.5638 260.696 46.6797 264.146 50.3906V53.6133C268.704 50.4232 273.066 48.112 277.232 46.6797C281.464 45.1823 287.031 44.4336 293.932 44.4336C304.609 44.4336 311.77 48.3073 315.416 56.0547C321.796 51.3672 327.102 48.2747 331.334 46.7773C335.631 45.2148 341.458 44.4336 348.814 44.4336C357.734 44.4336 364.049 46.875 367.76 51.7578C371.536 56.5755 373.424 64.0625 373.424 74.2188C373.424 93.5547 373.749 109.928 374.4 123.34C374.531 126.009 379.12 127.93 388.17 129.102C389.667 133.398 389.537 137.337 387.779 140.918C368.704 140.527 349.693 140.527 330.748 140.918C329.186 137.077 329.186 133.138 330.748 129.102C332.896 129.102 335.045 128.548 337.193 127.441C339.342 126.27 340.416 124.902 340.416 123.34L340.611 77.4414C340.611 70.3451 339.212 66.0156 336.412 64.4531C331.074 65.7552 325.117 69.2708 318.541 75ZM304.576 70.8008C304.186 63.0534 302.656 57.3893 299.986 53.8086C297.317 50.2279 292.988 48.4375 286.998 48.4375C282.571 48.4375 277.981 49.707 273.229 52.2461C268.541 54.7852 264.798 57.2917 261.998 59.7656C259.199 62.1745 255.325 65.8529 250.377 70.8008V51.3672C249.856 50.3255 248.717 49.4792 246.959 48.8281C237.91 53.0599 228.502 55.7292 218.736 56.8359C218.346 58.3984 218.346 59.9284 218.736 61.4258C226.223 61.8164 231.757 63.151 235.338 65.4297C235.794 84.8958 235.794 104.199 235.338 123.34C235.208 128.158 229.609 131.283 218.541 132.715C217.76 134.212 217.76 135.807 218.541 137.5C235.208 136.979 251.809 136.979 268.346 137.5C269.192 135.807 269.192 134.212 268.346 132.715C257.018 131.413 251.288 128.288 251.158 123.34C250.637 109.798 250.377 94.3685 250.377 77.0508C257.148 71.1263 262.682 66.7643 266.979 63.9648C271.275 61.1654 275.344 59.7656 279.186 59.7656C286.217 59.7656 289.732 65.6576 289.732 77.4414L289.537 123.34C289.537 128.418 286.087 131.543 279.186 132.715C278.404 134.212 278.404 135.807 279.186 137.5C293.834 137.109 308.417 137.109 322.936 137.5C323.782 135.807 323.782 134.212 322.936 132.715C319.485 132.454 316.686 132.096 314.537 131.641C312.454 131.185 310.468 130.273 308.58 128.906C306.692 127.474 305.748 125.618 305.748 123.34L304.771 77.0508C311.542 71.1263 317.076 66.7643 321.373 63.9648C325.67 61.1654 329.739 59.7656 333.58 59.7656C340.611 59.7656 344.127 65.6576 344.127 77.4414L343.932 123.34C343.932 128.418 340.481 131.543 333.58 132.715C332.799 134.212 332.799 135.807 333.58 137.5C350.377 137.109 367.239 137.109 384.166 137.5C385.077 135.938 385.077 134.342 384.166 132.715C368.281 131.934 360.273 128.809 360.143 123.34L359.166 74.2188C358.906 65.2995 357.473 58.7891 354.869 54.6875C352.265 50.5208 347.773 48.4375 341.393 48.4375C336.965 48.4375 332.376 49.6745 327.623 52.1484C322.936 54.5573 319.127 57.0638 316.197 59.668C313.268 62.2721 309.394 65.9831 304.576 70.8008Z" fill="black"/>
<path d="M494.721 75C494.721 93.8151 495.079 109.928 495.795 123.34C495.925 126.79 498.106 128.711 502.338 129.102C503.965 133.138 503.965 137.077 502.338 140.918C485.671 140.527 468.939 140.527 452.143 140.918C450.58 137.077 450.58 133.138 452.143 129.102C458.523 128.19 461.713 126.27 461.713 123.34L461.908 77.4414C461.908 70.3451 460.508 66.0156 457.709 64.4531C451.98 65.8854 446.186 69.401 440.326 75C440.326 92.9036 440.587 108.952 441.107 123.145C441.303 124.837 441.791 126.139 442.572 127.051C443.354 127.897 445.079 128.581 447.748 129.102C449.376 133.138 449.376 137.077 447.748 140.918C429.063 140.397 410.281 140.397 391.4 140.918C389.773 137.077 389.773 133.138 391.4 129.102C402.012 127.669 407.383 125.684 407.514 123.145C408.1 108.496 408.1 90.0391 407.514 67.7734C403.152 66.4714 397.781 65.625 391.4 65.2344C389.903 61.3281 389.903 57.194 391.4 52.832C401.231 52.3112 412.299 49.3815 424.604 44.043C431.635 44.5638 436.876 46.6797 440.326 50.3906V53.6133C444.883 50.4232 449.245 48.112 453.412 46.6797C457.644 45.1823 463.21 44.4336 470.111 44.4336C480.788 44.4336 487.95 48.3073 491.596 56.0547C497.976 51.3672 503.282 48.2747 507.514 46.7773C511.811 45.2148 517.637 44.4336 524.994 44.4336C533.913 44.4336 540.229 46.875 543.939 51.7578C547.715 56.5755 549.604 64.0625 549.604 74.2188C549.604 93.5547 549.929 109.928 550.58 123.34C550.71 126.009 555.3 127.93 564.35 129.102C565.847 133.398 565.717 137.337 563.959 140.918C544.883 140.527 525.873 140.527 506.928 140.918C505.365 137.077 505.365 133.138 506.928 129.102C509.076 129.102 511.225 128.548 513.373 127.441C515.521 126.27 516.596 124.902 516.596 123.34L516.791 77.4414C516.791 70.3451 515.391 66.0156 512.592 64.4531C507.253 65.7552 501.296 69.2708 494.721 75ZM480.756 70.8008C480.365 63.0534 478.835 57.3893 476.166 53.8086C473.497 50.2279 469.167 48.4375 463.178 48.4375C458.751 48.4375 454.161 49.707 449.408 52.2461C444.721 54.7852 440.977 57.2917 438.178 59.7656C435.378 62.1745 431.505 65.8529 426.557 70.8008V51.3672C426.036 50.3255 424.896 49.4792 423.139 48.8281C414.089 53.0599 404.682 55.7292 394.916 56.8359C394.525 58.3984 394.525 59.9284 394.916 61.4258C402.403 61.8164 407.937 63.151 411.518 65.4297C411.973 84.8958 411.973 104.199 411.518 123.34C411.387 128.158 405.788 131.283 394.721 132.715C393.939 134.212 393.939 135.807 394.721 137.5C411.387 136.979 427.989 136.979 444.525 137.5C445.372 135.807 445.372 134.212 444.525 132.715C433.197 131.413 427.468 128.288 427.338 123.34C426.817 109.798 426.557 94.3685 426.557 77.0508C433.327 71.1263 438.861 66.7643 443.158 63.9648C447.455 61.1654 451.524 59.7656 455.365 59.7656C462.396 59.7656 465.912 65.6576 465.912 77.4414L465.717 123.34C465.717 128.418 462.266 131.543 455.365 132.715C454.584 134.212 454.584 135.807 455.365 137.5C470.014 137.109 484.597 137.109 499.115 137.5C499.962 135.807 499.962 134.212 499.115 132.715C495.665 132.454 492.865 132.096 490.717 131.641C488.633 131.185 486.648 130.273 484.76 128.906C482.872 127.474 481.928 125.618 481.928 123.34L480.951 77.0508C487.722 71.1263 493.256 66.7643 497.553 63.9648C501.85 61.1654 505.919 59.7656 509.76 59.7656C516.791 59.7656 520.307 65.6576 520.307 77.4414L520.111 123.34C520.111 128.418 516.661 131.543 509.76 132.715C508.979 134.212 508.979 135.807 509.76 137.5C526.557 137.109 543.419 137.109 560.346 137.5C561.257 135.938 561.257 134.342 560.346 132.715C544.46 131.934 536.452 128.809 536.322 123.34L535.346 74.2188C535.085 65.2995 533.653 58.7891 531.049 54.6875C528.445 50.5208 523.952 48.4375 517.572 48.4375C513.145 48.4375 508.555 49.6745 503.803 52.1484C499.115 54.5573 495.307 57.0638 492.377 59.668C489.447 62.2721 485.574 65.9831 480.756 70.8008Z" fill="black"/>
<path d="M596.291 0C611.005 0 618.361 5.33854 618.361 16.0156C618.361 26.6927 611.005 32.0312 596.291 32.0312C594.077 32.0312 591.994 31.6081 590.041 30.7617C588.153 29.9154 586.493 28.776 585.061 27.3438C583.628 25.8464 582.489 24.1211 581.643 22.168C580.796 20.2148 580.373 18.1641 580.373 16.0156C580.373 13.8672 580.796 11.8164 581.643 9.86328C582.489 7.91016 583.628 6.21745 585.061 4.78516C586.493 3.28776 588.153 2.11589 590.041 1.26953C591.994 0.423177 594.077 0 596.291 0ZM587.307 7.61719C585.354 9.89583 584.377 12.6953 584.377 16.0156C584.377 17.7083 584.637 19.3034 585.158 20.8008C585.744 22.2331 586.525 23.5026 587.502 24.6094C588.479 25.651 589.585 26.4974 590.822 27.1484C592.124 27.7344 593.492 28.0273 594.924 28.0273C596.291 28.0273 597.626 27.7344 598.928 27.1484C600.23 26.4974 601.369 25.651 602.346 24.6094C603.322 23.5026 604.104 22.2331 604.689 20.8008C605.275 19.3034 605.568 17.7083 605.568 16.0156C605.568 14.3229 605.275 12.7604 604.689 11.3281C604.104 9.83073 603.322 8.5612 602.346 7.51953C601.369 6.41276 600.23 5.56641 598.928 4.98047C597.626 4.32943 596.291 4.00391 594.924 4.00391C593.557 4.00391 592.222 4.29688 590.92 4.88281C589.618 5.46875 588.413 6.38021 587.307 7.61719ZM626.76 132.715C611.265 131.283 603.452 128.158 603.322 123.34C602.671 103.809 602.411 79.8177 602.541 51.3672C602.02 50.3255 600.881 49.4792 599.123 48.8281C590.074 53.0599 580.666 55.7292 570.9 56.8359C570.51 58.3984 570.51 59.9284 570.9 61.4258C578.257 61.8164 583.856 63.151 587.697 65.4297C588.283 89.7135 588.218 109.017 587.502 123.34C587.372 128.158 581.838 131.283 570.9 132.715C570.249 134.342 570.249 135.938 570.9 137.5C589.585 137.109 608.205 137.109 626.76 137.5C627.411 135.938 627.411 134.342 626.76 132.715ZM630.373 129.102C631.415 133.138 631.415 137.077 630.373 140.918C609.41 140.267 588.413 140.267 567.385 140.918C566.278 137.077 566.278 133.138 567.385 129.102C577.997 128.06 583.368 126.074 583.498 123.145C584.344 104.915 584.41 86.4583 583.693 67.7734C579.331 66.4714 573.895 65.625 567.385 65.2344C565.887 61.3281 565.887 57.194 567.385 52.832C577.215 52.3112 588.283 49.3815 600.588 44.043C607.619 44.5638 612.86 46.6797 616.311 50.3906C616.05 82.4219 616.311 106.673 617.092 123.145C617.287 126.074 621.714 128.06 630.373 129.102Z" fill="black"/>
<path d="M654.369 60.2539H692.748C693.66 57.7148 693.66 55.3711 692.748 53.2227H654.369V31.8359C652.742 31.1198 651.114 31.1198 649.486 31.8359C647.077 36.3281 644.408 40.2669 641.479 43.6523C638.549 46.9727 636.075 49.3164 634.057 50.6836C632.104 51.9857 629.271 53.6784 625.561 55.7617C625.105 57.1289 625.105 58.6263 625.561 60.2539H637.475V111.426C637.475 130.501 645.352 140.039 661.107 140.039C667.813 140.039 673.998 138.314 679.662 134.863C685.326 131.348 689.558 127.051 692.357 121.973C691.771 120.54 690.697 119.759 689.135 119.629C683.015 125.098 677.09 127.832 671.361 127.832C660.033 127.832 654.369 122.689 654.369 112.402V60.2539ZM687.963 115.43C692.064 115.951 694.994 118.197 696.752 122.168C693.367 128.353 688.451 133.529 682.006 137.695C675.561 141.927 668.594 144.043 661.107 144.043C642.748 144.043 633.568 133.171 633.568 111.426V64.1602H621.557C620.58 60.7096 620.58 57.1289 621.557 53.418C625.528 51.1393 628.555 49.2839 630.639 47.8516C632.722 46.3542 635.326 43.9453 638.451 40.625C641.576 37.3047 644.343 33.3008 646.752 28.6133C652.872 26.0742 660.001 26.2044 668.139 29.0039V49.2188H696.557C698.64 54.0365 698.64 59.0169 696.557 64.1602H668.139V112.402C668.139 118.652 670.385 122.331 674.877 123.438C678.783 122.591 683.145 119.922 687.963 115.43Z" fill="black"/>
</svg>
